<?xml version="1.0" standalone="no"?><!DOCTYPE svg PUBLIC "-//W3C//DTD SVG 1.1//EN" "http://www.w3.org/Graphics/SVG/1.1/DTD/svg11.dtd"><svg t="1552309403112" class="icon" style="" viewBox="0 0 1024 1024" version="1.1" xmlns="http://www.w3.org/2000/svg" p-id="2784" xmlns:xlink="http://www.w3.org/1999/xlink" width="200" height="200"><defs><style type="text/css"></style></defs><path d="M515.80668 1023.921301a42.103936 42.103936 0 0 1-7.004206-0.629592C216.829382 970.406017-51.061832 685.830627 8.670669 169.093344a39.113376 39.113376 0 0 1 41.002151-34.784935C234.457946 143.673584 494.715363 7.603105 497.391127 6.186524a39.428172 39.428172 0 0 1 36.752408 69.648568c-10.781756 5.666324-250.734844 131.033746-450.866265 137.408361-41.710442 473.61026 208.080015 690.740654 439.454918 732.608493a39.349473 39.349473 0 0 1-6.925508 78.069355z" fill="#e6e6e6" p-id="2785"></path><path d="M515.727981 1024a39.349473 39.349473 0 0 1-7.004206-78.069355c181.873265-32.89616 331.086468-165.11039 399.003659-353.515668a39.349473 39.349473 0 0 1 74.134408 26.757642c-77.67586 215.084221-249.239564 366.264897-459.050955 404.276488a55.876252 55.876252 0 0 1-7.082906 0.550893zM963.839783 212.69256c-203.043282 0-455.430804-131.820735-466.448656-137.644458a39.349473 39.349473 0 1 1 36.673709-69.569868c2.675764 1.416581 263.956267 137.880554 447.797006 128.121885 20.93392-1.416581 40.215162 15.739789 41.159549 37.381999a39.270774 39.270774 0 0 1-37.382 41.238248c-7.082905 0.314796-14.401907 0.472194-21.799608 0.472194zM515.727981 264.082972c46.117583 0 83.499582 35.257128 83.499583 78.698947s-37.382 78.698947-83.499583 78.698946-83.499582-35.257128-83.499582-78.698946 37.382-78.698947 83.499582-78.698947m0-78.698947c-86.726239 0-157.397893 70.592955-157.397893 157.397894s70.592955 157.397893 157.397893 157.397893c86.726239 0 157.397893-70.592955 157.397894-157.397893s-70.592955-157.397893-157.397894-157.397894z" fill="#e6e6e6" p-id="2786"></path><path d="M515.727981 436.197568c-24.554071 0-44.464905 17.628564-44.464904 39.349473v350.446409c0 21.720909 19.910833 39.349473 44.464904 39.349474s44.464905-17.628564 44.464905-39.349474V475.547041c0-21.720909-19.910833-39.349473-44.464905-39.349473z" fill="#e6e6e6" p-id="2787"></path></svg>