<?xml version="1.0" standalone="no"?><!DOCTYPE svg PUBLIC "-//W3C//DTD SVG 1.1//EN" "http://www.w3.org/Graphics/SVG/1.1/DTD/svg11.dtd"><svg t="1551339203602" class="icon" style="" viewBox="0 0 1024 1024" version="1.1" xmlns="http://www.w3.org/2000/svg" p-id="2119" xmlns:xlink="http://www.w3.org/1999/xlink" width="300" height="300"><defs><style type="text/css"></style></defs><path d="M881.777778 284.444444V199.111111c0-56.888889-59.733333-113.777778-369.777778-113.777778S142.222222 142.222222 142.222222 199.111111v85.333333c-31.288889 0-56.888889 25.6-56.888889 56.888889v56.888889c0 31.288889 25.6 56.888889 56.888889 56.888889v312.888889c0 31.288889 17.066667 59.733333 42.666667 73.955556v54.044444C184.888889 935.822222 216.177778 967.111111 256 967.111111s71.111111-31.288889 71.111111-71.111111V853.333333h369.777778v42.666667c0 39.822222 31.288889 71.111111 71.111111 71.111111s71.111111-31.288889 71.111111-71.111111v-54.044444c25.6-14.222222 42.666667-42.666667 42.666667-73.955556V455.111111c31.288889 0 56.888889-25.6 56.888889-56.888889v-56.888889c0-31.288889-25.6-56.888889-56.888889-56.888889zM312.888889 170.666667h398.222222c17.066667 0 28.444444 11.377778 28.444445 28.444444s-11.377778 28.444444-28.444445 28.444445H312.888889c-17.066667 0-28.444444-11.377778-28.444445-28.444445s11.377778-28.444444 28.444445-28.444444zM256 796.444444c-31.288889 0-56.888889-25.6-56.888889-56.888888s25.6-56.888889 56.888889-56.888889 56.888889 25.6 56.888889 56.888889-25.6 56.888889-56.888889 56.888888z m512 0c-31.288889 0-56.888889-25.6-56.888889-56.888888s25.6-56.888889 56.888889-56.888889 56.888889 25.6 56.888889 56.888889-25.6 56.888889-56.888889 56.888888z m56.888889-284.444444c0 45.511111-36.977778 85.333333-85.333333 85.333333H284.444444c-48.355556 0-85.333333-39.822222-85.333333-85.333333v-142.222222c0-48.355556 36.977778-85.333333 85.333333-85.333334h455.111112c48.355556 0 85.333333 36.977778 85.333333 85.333334v142.222222z" fill="#e6e6e6" p-id="2120"></path></svg>