<?xml version="1.0" standalone="no"?><!DOCTYPE svg PUBLIC "-//W3C//DTD SVG 1.1//EN" "http://www.w3.org/Graphics/SVG/1.1/DTD/svg11.dtd"><svg t="1547950442060" class="icon" style="" viewBox="0 0 1024 1024" version="1.1" xmlns="http://www.w3.org/2000/svg" p-id="683" xmlns:xlink="http://www.w3.org/1999/xlink" width="200" height="200"><defs><style type="text/css"></style></defs><path d="M196.277 225.916c0 12.675-10.264 22.951-22.952 22.951H87.254c-12.687 0-22.954-10.277-22.954-22.95v-86.07c0-12.675 10.267-22.952 22.954-22.952h86.071c12.688 0 22.952 10.276 22.952 22.951v86.07zM959.45 225.916c0 12.675-10.265 22.951-22.951 22.951H311.04c-12.687 0-22.953-10.276-22.953-22.95v-86.07c0-12.675 10.266-22.95 22.953-22.95h625.458c12.685 0 22.951 10.275 22.951 22.95v86.07zM196.277 532.894c0 12.675-10.264 22.952-22.952 22.952H87.254c-12.687 0-22.954-10.277-22.954-22.952v-86.07c0-12.674 10.266-22.951 22.953-22.951h86.071c12.688 0 22.952 10.276 22.952 22.952v86.069zM959.45 532.894c0 12.675-10.265 22.952-22.951 22.952H311.04c-12.687 0-22.953-10.277-22.953-22.952v-86.07c0-12.674 10.266-22.951 22.953-22.951h625.458c12.685 0 22.951 10.276 22.951 22.952v86.069zM196.277 839.871c0 12.675-10.264 22.952-22.952 22.952H87.254c-12.687 0-22.954-10.277-22.954-22.952v-86.068c0-12.676 10.266-22.953 22.953-22.953h86.071c12.688 0 22.952 10.277 22.952 22.953v86.068zM959.45 839.871c0 12.675-10.265 22.952-22.951 22.952H311.04c-12.687 0-22.953-10.277-22.953-22.952v-86.068c0-12.676 10.266-22.953 22.953-22.953h625.458c12.685 0 22.951 10.277 22.951 22.953v86.068z" p-id="684"></path></svg>