<?xml version="1.0" standalone="no"?><!DOCTYPE svg PUBLIC "-//W3C//DTD SVG 1.1//EN" "http://www.w3.org/Graphics/SVG/1.1/DTD/svg11.dtd"><svg t="1548741224661" class="icon" style="" viewBox="0 0 1024 1024" version="1.1" xmlns="http://www.w3.org/2000/svg" p-id="3048" xmlns:xlink="http://www.w3.org/1999/xlink" width="200" height="200"><defs><style type="text/css"></style></defs><path d="M199.111111 1024c-62.577778 0-113.777778-51.2-113.777778-113.777778V227.555556c0-62.577778 51.2-113.777778 113.777778-113.777778 19.911111 0 36.977778 17.066667 36.977778 36.977778v54.044444c-42.666667 11.377778-73.955556 25.6-73.955556 71.111111V853.333333c0 51.2 39.822222 93.866667 93.866667 93.866667h497.777778c51.2 0 93.866667-42.666667 93.866666-93.866667V275.911111c0-45.511111-31.288889-59.733333-76.8-68.266667V153.6c-2.844444-22.755556 14.222222-39.822222 34.133334-39.822222 62.577778 0 113.777778 51.2 113.777778 113.777778v682.666666c0 62.577778-51.2 113.777778-113.777778 113.777778H199.111111z m341.333333-304.355556h227.555556c19.911111 0 36.977778 17.066667 36.977778 36.977778S787.911111 796.444444 768 796.444444h-227.555556c-19.911111 0-36.977778-17.066667-36.977777-36.977777s17.066667-39.822222 36.977777-39.822223z m0-301.511111h227.555556c19.911111 0 36.977778 17.066667 36.977778 36.977778s-17.066667 36.977778-36.977778 36.977778h-227.555556c-19.911111 0-36.977778-17.066667-36.977777-36.977778s17.066667-36.977778 36.977777-36.977778z m-227.555555-227.555555V150.755556c0-19.911111 17.066667-36.977778 36.977778-36.977778h36.977777c0-62.577778 51.2-113.777778 113.777778-113.777778s113.777778 51.2 113.777778 113.777778H654.222222c19.911111 0 36.977778 17.066667 36.977778 36.977778v36.977777L312.888889 190.577778z m-99.555556 233.244444c5.688889-5.688889 17.066667-5.688889 25.6 0l62.577778 62.577778 136.533333-136.533333c8.533333-8.533333 22.755556-8.533333 28.444445 0 8.533333 8.533333 8.533333 19.911111 0 28.444444l-147.911111 147.911111c-5.688889 2.844444-11.377778 5.688889-17.066667 5.688889-5.688889 0-8.533333-2.844444-11.377778-5.688889l-73.955555-73.955555c-11.377778-11.377778-11.377778-22.755556-2.844445-28.444445z m207.644445 403.911111c-8.533333 8.533333-22.755556 8.533333-28.444445 0L332.8 768l-59.733333 59.733333c-8.533333 8.533333-22.755556 8.533333-28.444445 0-8.533333-8.533333-8.533333-22.755556 0-28.444444l59.733334-59.733333-59.733334-59.733334c-8.533333-8.533333-8.533333-22.755556 0-28.444444 8.533333-8.533333 19.911111-8.533333 28.444445 0l59.733333 59.733333 59.733333-59.733333c8.533333-8.533333 22.755556-8.533333 28.444445 0 8.533333 8.533333 8.533333 19.911111 0 28.444444L361.244444 739.555556l59.733334 59.733333c8.533333 5.688889 8.533333 19.911111 0 28.444444z" fill="#e6e6e6" p-id="3049"></path></svg>