<?xml version="1.0" standalone="no"?><!DOCTYPE svg PUBLIC "-//W3C//DTD SVG 1.1//EN" "http://www.w3.org/Graphics/SVG/1.1/DTD/svg11.dtd"><svg t="1548741318659" class="icon" style="" viewBox="0 0 1844 1024" version="1.1" xmlns="http://www.w3.org/2000/svg" p-id="3199" xmlns:xlink="http://www.w3.org/1999/xlink" width="360.15625" height="200"><defs><style type="text/css"></style></defs><path d="M650.541129 1022.638311 108.423481 1022.638311C52.314305 1022.638311 6.776422 976.885119 6.776422 920.510651L6.776422 103.489375C6.776422 47.114907 52.314305 1.361715 108.423481 1.361715L650.541129 1.361715C706.650305 1.361715 752.188187 47.114907 752.188187 103.489375 752.188187 159.863843 706.650305 205.617034 650.541129 205.617034L210.07054 205.617034 210.07054 818.382991 650.541129 818.382991C706.650305 818.382991 752.188187 864.136183 752.188187 920.510651 752.188187 976.885119 706.650305 1022.638311 650.541129 1022.638311L650.541129 1022.638311ZM1734.776422 1022.638311 1192.65878 1022.638311C1136.549601 1022.638311 1091.011717 976.885119 1091.011717 920.510651 1091.011717 864.136183 1136.549601 818.382991 1192.65878 818.382991L1633.129359 818.382991 1633.129359 205.617034 1192.65878 205.617034C1136.549601 205.617034 1091.011717 159.863843 1091.011717 103.489375 1091.011717 47.114907 1136.549601 1.361715 1192.65878 1.361715L1734.776422 1.361715C1790.885601 1.361715 1836.423485 47.114907 1836.423485 103.489375L1836.423485 920.510651C1836.423485 976.885119 1790.885601 1022.638311 1734.776422 1022.638311L1734.776422 1022.638311ZM1328.188191 614.127672 515.011716 614.127672C458.90254 614.127672 413.364658 568.374481 413.364658 512.000013 413.364658 455.625545 458.90254 409.872353 515.011716 409.872353L1328.188191 409.872353C1384.297359 409.872353 1429.835244 455.625545 1429.835244 512.000013 1429.835244 568.374481 1384.297359 614.127672 1328.188191 614.127672L1328.188191 614.127672Z" p-id="3200" fill="#e6e6e6"></path></svg>